<?xml version="1.0" encoding="UTF-8" standalone="no"?>
<svg
   version="1.1"
   x="0px"
   y="0px"
   viewBox="0 0 200 200"
   xml:space="preserve"
   id="svg858"
   sodipodi:docname="Icon-ES.svg"
   inkscape:version="1.1.2 (b8e25be8, 2022-02-05)"
   width="200"
   height="200"
   xmlns:inkscape="http://www.inkscape.org/namespaces/inkscape"
   xmlns:sodipodi="http://sodipodi.sourceforge.net/DTD/sodipodi-0.dtd"
   xmlns="http://www.w3.org/2000/svg"
   xmlns:svg="http://www.w3.org/2000/svg"><defs
     id="defs862" /><sodipodi:namedview
     id="namedview860"
     pagecolor="#ffffff"
     bordercolor="#666666"
     borderopacity="1.0"
     inkscape:pageshadow="2"
     inkscape:pageopacity="0.0"
     inkscape:pagecheckerboard="0"
     showgrid="false"
     inkscape:zoom="0.97878788"
     inkscape:cx="20.944272"
     inkscape:cy="185.94427"
     inkscape:window-width="1365"
     inkscape:window-height="1027"
     inkscape:window-x="2363"
     inkscape:window-y="25"
     inkscape:window-maximized="0"
     inkscape:current-layer="svg858"
     fit-margin-top="0"
     fit-margin-left="0"
     fit-margin-right="0"
     fit-margin-bottom="0" /><g
     id="g937"
     transform="matrix(1.9572895,0,0,1.9572895,38.372422,37.953842)"
     style="stroke-width:0.510911"><path
       d="M 35.01,60.21 H 63.89 V 45.95 c -15.27,0 -20.47,8.49 -28.88,14.26 z"
       id="path824"
       style="stroke-width:0.510911" /><path
       d="m 47.46,45.88 2.46,-5.04 2.51,5.13 c 0.55,-0.22 1.12,-0.43 1.72,-0.62 l -3.22,-6.58 h -9.18 l -3.45,7.05 c 1.35,-0.12 2.77,-0.18 4.24,-0.18 1.72,0 3.37,0.08 4.92,0.24 z"
       id="path826"
       style="stroke-width:0.510911" /><circle
       transform="matrix(0.7071,-0.7071,0.7071,0.7071,4.0172,42.9405)"
       cx="53.84"
       cy="16.620001"
       id="ellipse828"
       r="5.3899999"
       style="stroke-width:0.510911" /><path
       d="m 53.84,10.09 c 0.55,0 1,-0.45 1,-1 v -2.3 c 0,-0.55 -0.45,-1 -1,-1 -0.55,0 -1,0.45 -1,1 v 2.3 c 0,0.55 0.45,1 1,1 z"
       id="path830"
       style="stroke-width:0.510911" /><path
       d="m 52.84,24.15 v 2.3 c 0,0.55 0.45,1 1,1 0.55,0 1,-0.45 1,-1 v -2.3 c 0,-0.55 -0.45,-1 -1,-1 -0.55,0 -1,0.45 -1,1 z"
       id="path832"
       style="stroke-width:0.510911" /><path
       d="m 59.17,12.29 c 0.26,0 0.51,-0.1 0.71,-0.29 l 1.63,-1.63 c 0.39,-0.39 0.39,-1.02 0,-1.41 -0.39,-0.39 -1.02,-0.39 -1.41,0 l -1.63,1.63 c -0.39,0.39 -0.39,1.02 0,1.41 0.19,0.2 0.44,0.29 0.7,0.29 z"
       id="path834"
       style="stroke-width:0.510911" /><path
       d="m 47.81,21.24 -1.63,1.63 c -0.39,0.39 -0.39,1.02 0,1.41 0.2,0.19 0.45,0.29 0.71,0.29 0.26,0 0.51,-0.1 0.71,-0.29 l 1.63,-1.63 c 0.39,-0.39 0.39,-1.02 0,-1.41 -0.4,-0.39 -1.03,-0.39 -1.42,0 z"
       id="path836"
       style="stroke-width:0.510911" /><path
       d="m 63.68,15.62 h -2.3 c -0.55,0 -1,0.45 -1,1 0,0.55 0.45,1 1,1 h 2.3 c 0.55,0 1,-0.45 1,-1 0,-0.55 -0.45,-1 -1,-1 z"
       id="path838"
       style="stroke-width:0.510911" /><path
       d="m 44.01,17.62 h 2.3 c 0.55,0 1,-0.45 1,-1 0,-0.55 -0.45,-1 -1,-1 h -2.3 c -0.55,0 -1,0.45 -1,1 0,0.55 0.45,1 1,1 z"
       id="path840"
       style="stroke-width:0.510911" /><path
       d="m 58.46,21.24 c -0.39,0.39 -0.39,1.02 0,1.41 l 1.63,1.63 c 0.2,0.2 0.45,0.29 0.71,0.29 0.26,0 0.51,-0.1 0.71,-0.29 0.39,-0.39 0.39,-1.02 0,-1.41 l -1.63,-1.63 c -0.39,-0.39 -1.03,-0.39 -1.42,0 z"
       id="path842"
       style="stroke-width:0.510911" /><path
       d="m 47.81,12 c 0.2,0.2 0.45,0.29 0.71,0.29 0.26,0 0.51,-0.1 0.71,-0.29 0.39,-0.39 0.39,-1.02 0,-1.41 L 47.6,8.96 c -0.39,-0.39 -1.02,-0.39 -1.41,0 -0.39,0.39 -0.39,1.02 0,1.41 z"
       id="path844"
       style="stroke-width:0.510911" /><path
       d="m 42.02,52.04 c 1.81,-1.46 3.71,-2.88 5.85,-4.1 -1.67,-0.18 -3.46,-0.29 -5.34,-0.29 -2.08,0 -4.05,0.13 -5.86,0.36 1.48,1.06 2.9,2.15 4.31,3.24 0.35,0.26 0.7,0.52 1.04,0.79 z"
       id="path846"
       style="stroke-width:0.510911" /><path
       d="M 40.88,53.35 C 33.89,47.95 27.15,42.36 13.2,42.36 c -4.67,0 -8.53,0.62 -11.87,1.67 v 16.19 h 30.59 l 2.41,-1.65 c 1.96,-1.34 3.72,-2.83 5.59,-4.4 0.31,-0.28 0.63,-0.55 0.96,-0.82 z"
       id="path848"
       style="stroke-width:0.510911" /><path
       d="m 9.43,38.33 v 2.17 c 0.66,-0.05 1.32,-0.09 2,-0.11 v -2.06 c 3,-0.48 5.29,-3.07 5.29,-6.21 0,-3.48 -2.82,-15.68 -6.29,-15.68 -3.48,0 -6.29,12.21 -6.29,15.68 0,3.14 2.29,5.73 5.29,6.21 z"
       id="path850"
       style="stroke-width:0.510911" /><path
       d="m 22.3,40.48 v 0.77 c 0.69,0.14 1.35,0.3 2,0.48 v -1.25 c 1.85,-0.45 3.22,-2.11 3.22,-4.09 0,-2.33 -1.89,-10.53 -4.22,-10.53 -2.33,0 -4.22,8.19 -4.22,10.53 0,1.98 1.38,3.63 3.22,4.09 z"
       id="path852"
       style="stroke-width:0.510911" /></g><circle
     style="opacity:0.8;fill:none;stroke:#d4aa00;stroke-width:7.55906"
     id="path1145"
     cx="100"
     cy="100"
     r="96.220467" /></svg>
