<?xml version="1.0" encoding="UTF-8" standalone="no"?>
<svg
   version="1.1"
   x="0px"
   y="0px"
   viewBox="0 0 200 200"
   enable-background="new 0 0 32 32"
   xml:space="preserve"
   id="svg842"
   sodipodi:docname="Icon-Pedagogy.svg"
   inkscape:version="1.1.2 (b8e25be8, 2022-02-05)"
   width="200"
   height="200"
   xmlns:inkscape="http://www.inkscape.org/namespaces/inkscape"
   xmlns:sodipodi="http://sodipodi.sourceforge.net/DTD/sodipodi-0.dtd"
   xmlns="http://www.w3.org/2000/svg"
   xmlns:svg="http://www.w3.org/2000/svg"><defs
     id="defs846" /><sodipodi:namedview
     id="namedview844"
     pagecolor="#ffffff"
     bordercolor="#666666"
     borderopacity="1.0"
     inkscape:pageshadow="2"
     inkscape:pageopacity="0.0"
     inkscape:pagecheckerboard="0"
     showgrid="false"
     inkscape:zoom="1.4274718"
     inkscape:cx="43.083162"
     inkscape:cy="150.61593"
     inkscape:window-width="1365"
     inkscape:window-height="1027"
     inkscape:window-x="2363"
     inkscape:window-y="25"
     inkscape:window-maximized="0"
     inkscape:current-layer="svg842"
     fit-margin-top="0"
     fit-margin-left="0"
     fit-margin-right="0"
     fit-margin-bottom="0" /><g
     id="g836"
     transform="matrix(4.2857143,0,0,4.2857143,27.428571,27.428571)"
     style="stroke-width:0.233333"><path
       d="m 19,11 c 0,-1.6542969 -1.345703,-3 -3,-3 -1.654297,0 -3,1.3457031 -3,3 0,1.654297 1.345703,3 3,3 1.654297,0 3,-1.345703 3,-3 z m -3,1 c -0.551269,0 -1,-0.44873 -1,-1 0,-0.551269 0.448731,-1 1,-1 0.551269,0 1,0.448731 1,1 0,0.55127 -0.448731,1 -1,1 z"
       id="path824"
       style="stroke-width:0.233333" /><path
       d="m 21,17 c 0,-1.654297 -1.345703,-3 -3,-3 h -2 -2 c -1.654297,0 -3,1.345703 -3,3 v 2 c 0,0.552246 0.447754,1 1,1 h 8 c 0.552734,0 1,-0.447754 1,-1 z m -2,1 h -6 v -1 c 0,-0.55127 0.448731,-1 1,-1 h 4 c 0.551758,0 1,0.44873 1,1 z"
       id="path826"
       style="stroke-width:0.233333" /><path
       d="m 29.316406,4.0512695 -6,-2 c -0.205078,-0.068359 -0.427734,-0.068359 -0.632812,0 l -6,2 C 16.275391,4.1875 16,4.5693359 16,5 c 0,0.4306641 0.275391,0.8125 0.683594,0.9487305 L 19,6.7208862 V 9 c 0,0.4306641 0.275391,0.8125 0.683594,0.9487305 l 3,1.0000005 C 22.786133,10.98291 22.893555,11 23,11 c 0.106445,0 0.213867,-0.01709 0.316406,-0.05127 l 3,-1.0000005 C 26.724609,9.8125 27,9.4306641 27,9 V 6.7208862 l 1,-0.333374 V 9 c 0,0.5522461 0.447266,1 1,1 0.552734,0 1,-0.4477539 1,-1 V 5 C 30,4.5693359 29.724609,4.1875 29.316406,4.0512695 Z M 23,4.0541992 25.837891,5 23,5.9458008 20.162109,5 Z M 25,8.2792969 23,8.9458008 21,8.2792969 V 7.3875122 l 1.683594,0.5612183 C 22.786133,7.9829102 22.893555,8 23,8 23.106445,8 23.213867,7.98291 23.316406,7.94873 L 25,7.3875122 Z"
       id="path828"
       style="stroke-width:0.233333" /><path
       d="m 27,24 c -0.462524,0 -0.89563,0.113892 -1.287231,0.301636 -0.0025,-0.0026 -0.0032,-0.0061 -0.0057,-0.0087 l -3,-3 c -0.390625,-0.390625 -1.023437,-0.390625 -1.414062,0 -0.390625,0.390625 -0.390625,1.023437 0,1.414062 l 3,3 c 0.0026,0.0026 0.0061,0.0032 0.0087,0.0057 C 24.113953,26.10437 24,26.537537 24,27 c 0,1.654297 1.345703,3 3,3 1.654297,0 3,-1.345703 3,-3 0,-1.654297 -1.345703,-3 -3,-3 z m 0,4 c -0.551758,0 -1,-0.448731 -1,-1 0,-0.55127 0.448242,-1 1,-1 0.551758,0 1,0.44873 1,1 0,0.551269 -0.448242,1 -1,1 z"
       id="path830"
       style="stroke-width:0.233333" /><path
       d="M 17,24.184265 V 22 c 0,-0.552246 -0.447754,-1 -1,-1 -0.552246,0 -1,0.447754 -1,1 v 2.184265 C 13.838501,24.598389 13,25.698059 13,27 c 0,1.654297 1.345703,3 3,3 1.654297,0 3,-1.345703 3,-3 0,-1.301941 -0.838501,-2.401611 -2,-2.815735 z M 16,28 c -0.551269,0 -1,-0.448731 -1,-1 0,-0.55127 0.448731,-1 1,-1 0.551269,0 1,0.44873 1,1 0,0.551269 -0.448731,1 -1,1 z"
       id="path832"
       style="stroke-width:0.233333" /><path
       d="m 9.2929688,21.292969 -3,3 c -0.00256,0.0026 -0.00323,0.006 -0.00574,0.0086 C 5.8956299,24.113892 5.4625244,24 5,24 c -1.6542969,0 -3,1.345703 -3,3 0,1.654297 1.3457031,3 3,3 1.6542969,0 3,-1.345703 3,-3 0,-0.462524 -0.1138916,-0.89563 -0.3015747,-1.287231 0.00256,-0.0025 0.00604,-0.0032 0.00861,-0.0057 l 2.9999997,-3 c 0.390625,-0.390625 0.390625,-1.023437 0,-1.414062 -0.390625,-0.390625 -1.0234372,-0.390625 -1.4140622,0 z M 5,28 c -0.5512695,0 -1,-0.448731 -1,-1 0,-0.55127 0.4487305,-1 1,-1 0.5512695,0 1,0.44873 1,1 0,0.551269 -0.4487305,1 -1,1 z"
       id="path834"
       style="stroke-width:0.233333" /></g><circle
     style="opacity:0.8;fill:none;stroke:#d4aa00;stroke-width:7.55906"
     id="path936"
     cx="100"
     cy="100"
     r="96.220467" /></svg>
